<?xml version="1.0" encoding="UTF-8" standalone="no"?>
<!-- Generator: Adobe Illustrator 18.0.0, SVG Export Plug-In . SVG Version: 6.00 Build 0)  -->

<svg
   version="1.1"
   id="Capa_1"
   x="0px"
   y="0px"
   viewBox="0 0 297 297"
   style="enable-background:new 0 0 297 297;"
   xml:space="preserve"
   sodipodi:docname="cancel.svg"
   inkscape:version="1.1.2 (b8e25be833, 2022-02-05)"
   xmlns:inkscape="http://www.inkscape.org/namespaces/inkscape"
   xmlns:sodipodi="http://sodipodi.sourceforge.net/DTD/sodipodi-0.dtd"
   xmlns="http://www.w3.org/2000/svg"
   xmlns:svg="http://www.w3.org/2000/svg"><defs
   id="defs39" /><sodipodi:namedview
   id="namedview37"
   pagecolor="#ffffff"
   bordercolor="#666666"
   borderopacity="1.0"
   inkscape:pageshadow="2"
   inkscape:pageopacity="0.0"
   inkscape:pagecheckerboard="0"
   showgrid="false"
   inkscape:zoom="2.4208754"
   inkscape:cx="148.5"
   inkscape:cy="148.29346"
   inkscape:window-width="3840"
   inkscape:window-height="2107"
   inkscape:window-x="-8"
   inkscape:window-y="22"
   inkscape:window-maximized="1"
   inkscape:current-layer="Capa_1" />
<g
   id="g4"
   style="fill:#ff0000">
	<path
   d="M293.805,219.495l-71.019-71.003l70.998-71.015c4.258-4.259,4.256-11.163-0.002-15.422L234.921,3.194   C232.875,1.149,230.101,0,227.209,0c-2.893,0-5.667,1.15-7.712,3.196l-70.999,71.025L77.477,3.219   c-4.26-4.258-11.162-4.257-15.422,0.001L3.194,62.081C1.149,64.127,0,66.901,0,69.794c0,2.893,1.15,5.666,3.196,7.711l71.035,71.01   L3.248,219.525c-4.257,4.258-4.257,11.16,0,15.419l58.834,58.859c2.045,2.046,4.819,3.196,7.712,3.196h0.001   c2.893,0,5.667-1.149,7.712-3.195l71.013-71.029l71.005,70.979c4.258,4.258,11.161,4.258,15.419,0l58.86-58.834   c2.046-2.045,3.196-4.819,3.196-7.713C297,224.315,295.851,221.541,293.805,219.495z"
   id="path2"
   style="fill:#ff0000" />
</g>
<g
   id="g6">
</g>
<g
   id="g8">
</g>
<g
   id="g10">
</g>
<g
   id="g12">
</g>
<g
   id="g14">
</g>
<g
   id="g16">
</g>
<g
   id="g18">
</g>
<g
   id="g20">
</g>
<g
   id="g22">
</g>
<g
   id="g24">
</g>
<g
   id="g26">
</g>
<g
   id="g28">
</g>
<g
   id="g30">
</g>
<g
   id="g32">
</g>
<g
   id="g34">
</g>
</svg>
