<?xml version="1.0" encoding="UTF-8" standalone="no"?>
<!-- Uploaded to: SVG Repo, www.svgrepo.com, Generator: SVG Repo Mixer Tools -->

<svg
   version="1.1"
   id="Layer_1"
   viewBox="0 0 297 297"
   xml:space="preserve"
   sodipodi:docname="clapperboard.svg"
   inkscape:version="1.1.2 (b8e25be833, 2022-02-05)"
   xmlns:inkscape="http://www.inkscape.org/namespaces/inkscape"
   xmlns:sodipodi="http://sodipodi.sourceforge.net/DTD/sodipodi-0.dtd"
   xmlns="http://www.w3.org/2000/svg"
   xmlns:svg="http://www.w3.org/2000/svg"><defs
   id="defs93">
	
	
	
	
	
	
	
	
	
	
	
	
	
	
	
	
	
	
	
	
	
	
</defs><sodipodi:namedview
   id="namedview91"
   pagecolor="#ffffff"
   bordercolor="#666666"
   borderopacity="1.0"
   inkscape:pageshadow="2"
   inkscape:pageopacity="0.0"
   inkscape:pagecheckerboard="0"
   showgrid="false"
   inkscape:zoom="2.4208754"
   inkscape:cx="138.79277"
   inkscape:cy="148.29346"
   inkscape:window-width="3840"
   inkscape:window-height="2107"
   inkscape:window-x="-8"
   inkscape:window-y="22"
   inkscape:window-maximized="1"
   inkscape:current-layer="Layer_1" />
<g
   id="g900"
   transform="matrix(1.4825081,0,0,1.4825081,-69.922233,-82.80597)"><g
     id="g10">
		<path
   style="fill:#32373b"
   d="M 230.833,247.5 H 66.166 C 56.961,247.5 49.5,240.038 49.5,230.833 V 115.5 h 198 v 115.333 c 0,9.205 -7.462,16.667 -16.667,16.667 z"
   id="path8" />
	</g><g
     id="g14">
		<rect
   x="49.5"
   y="115.5"
   style="fill:#495054"
   width="198"
   height="33"
   id="rect12" />
	</g><g
     id="g18">
		<path
   style="fill:#495054"
   d="M 246.623,96.61 49.526,115.5 47.205,91.282 c -0.457,-4.767 3.037,-9.002 7.804,-9.459 L 234.842,64.587 c 4.767,-0.457 9.002,3.037 9.459,7.804 z"
   id="path16" />
	</g><g
     id="g22">
		<path
   style="fill:#22272b"
   d="m 148.834,115.5 v 132 h 82 c 9.205,0 16.667,-7.462 16.667,-16.667 V 115.5 Z"
   id="path20" />
	</g><g
     id="g26">
		<rect
   x="148.834"
   y="115.5"
   style="fill:#384044"
   width="98.666"
   height="33"
   id="rect24" />
	</g><g
     id="g30">
		<path
   style="fill:#384044"
   d="m 244.302,72.392 c -0.457,-4.767 -4.692,-8.261 -9.459,-7.804 l -86.009,8.243 v 33.151 l 97.789,-9.372 z"
   id="path28" />
	</g><g
     id="g34">
		<polygon
   style="fill:#ecf0f1"
   points="66,148.5 82.5,115.5 99,115.5 82.5,148.5 "
   id="polygon32" />
	</g><g
     id="g38">
		<polygon
   style="fill:#ecf0f1"
   points="99,148.5 115.5,115.5 132,115.5 115.5,148.5 "
   id="polygon36" />
	</g><g
     id="g42">
		<polygon
   style="fill:#d0d5d9"
   points="165,148.5 181.5,115.5 198,115.5 181.5,148.5 "
   id="polygon40" />
	</g><g
     id="g46">
		<polygon
   style="fill:#d0d5d9"
   points="198,148.5 214.5,115.5 231,115.5 214.5,148.5 "
   id="polygon44" />
	</g><g
     id="g50">
		<polygon
   style="fill:#ecf0f1"
   points="65.951,113.926 79.227,79.502 95.652,77.928 82.375,112.352 "
   id="polygon48" />
	</g><g
     id="g54">
		<polygon
   style="fill:#ecf0f1"
   points="98.8,110.777 112.076,76.354 128.501,74.78 115.225,109.203 "
   id="polygon52" />
	</g><g
     id="g58">
		<polygon
   style="fill:#d0d5d9"
   points="164.499,104.481 177.775,70.057 194.2,68.483 180.924,102.906 "
   id="polygon56" />
	</g><g
     id="g62">
		<polygon
   style="fill:#d0d5d9"
   points="197.348,101.332 210.625,66.908 227.049,65.334 213.773,99.758 "
   id="polygon60" />
	</g><g
     id="g66">
		<polygon
   style="fill:#ecf0f1"
   points="132,148.5 148.5,115.5 165,115.5 148.5,148.5 "
   id="polygon64" />
	</g><g
     id="g70">
		<polygon
   style="fill:#ecf0f1"
   points="131.649,107.629 144.926,73.205 161.351,71.631 148.074,106.055 "
   id="polygon68" />
	</g><g
     id="g74">
		<polygon
   style="fill:#d0d5d9"
   points="165,115.5 148.834,115.5 148.834,147.833 "
   id="polygon72" />
	</g><g
     id="g78">
		<polygon
   style="fill:#d0d5d9"
   points="161.351,71.631 148.834,72.831 148.834,104.086 "
   id="polygon76" />
	</g><g
     id="g82">
		<rect
   x="82.5"
   y="165"
   style="fill:#9adad9"
   width="132"
   height="49.5"
   id="rect80" />
	</g><g
     id="g86">
		<rect
   x="148.834"
   y="165"
   style="fill:#7ebcb9"
   width="65.666"
   height="49.5"
   id="rect84" />
	</g></g>
</svg>
