<?xml version="1.0" encoding="UTF-8" standalone="no"?>
<!-- Created with Inkscape (http://www.inkscape.org/) -->

<svg
   width="50"
   height="50"
   version="1.1"
   viewBox="0 0 13.229 13.229"
   id="svg4"
   sodipodi:docname="clear.svg"
   inkscape:version="1.1.2 (b8e25be833, 2022-02-05)"
   xmlns:inkscape="http://www.inkscape.org/namespaces/inkscape"
   xmlns:sodipodi="http://sodipodi.sourceforge.net/DTD/sodipodi-0.dtd"
   xmlns="http://www.w3.org/2000/svg"
   xmlns:svg="http://www.w3.org/2000/svg">
  <defs
     id="defs8" />
  <sodipodi:namedview
     id="namedview6"
     pagecolor="#ffffff"
     bordercolor="#666666"
     borderopacity="1.0"
     inkscape:pageshadow="2"
     inkscape:pageopacity="0.0"
     inkscape:pagecheckerboard="0"
     showgrid="false"
     inkscape:zoom="14.38"
     inkscape:cx="25"
     inkscape:cy="24.965229"
     inkscape:window-width="3840"
     inkscape:window-height="2107"
     inkscape:window-x="-8"
     inkscape:window-y="22"
     inkscape:window-maximized="1"
     inkscape:current-layer="svg4" />
  <path
     d="m10.319 2.3812c0.14111 0 0.26458 0.052917 0.37042 0.15875 0.10583 0.10583 0.15875 0.22931 0.15875 0.37042v1.5875l-2.1167 2.1167 2.1167 2.1167v1.5875c0 0.14993-0.05292 0.27781-0.15875 0.38365-0.10583 0.09701-0.22931 0.14552-0.37042 0.14552h-1.5875l-2.1167-2.1167-2.1167 2.1167h-1.5875c-0.14993 0-0.27781-0.04851-0.38365-0.14552-0.097015-0.10583-0.14552-0.23372-0.14552-0.38365v-1.5875l2.1167-2.1167-2.1167-2.1167v-1.5743c0-0.14993 0.048506-0.27781 0.14552-0.38365 0.10583-0.10583 0.23371-0.15875 0.38365-0.15875h1.5875l2.1167 2.1167 2.1167-2.1167h1.5875"
     fill="#f00"
     id="path2"
     style="fill:#666666" />
</svg>
