<?xml version="1.0" encoding="UTF-8"?>
<!-- Created with Inkscape (http://www.inkscape.org/) -->
<svg width="50" height="50" version="1.1" viewBox="0 0 13.229 13.229" xmlns="http://www.w3.org/2000/svg">
	<path d="m10.186 3.2836v4.0878c-0.05292 0.48507-0.22931 0.88194-0.52917 1.1906h-0.02646c-0.3175 0.35278-0.69233 0.54681-1.1245 0.58208h-0.013227c-0.44979 0.044098-0.82462-0.092604-1.1245-0.4101-0.29104-0.28222-0.41452-0.66146-0.37042-1.1377 0.0441-0.42333 0.22049-0.79375 0.52917-1.1112 0.29986-0.29986 0.62618-0.47625 0.97896-0.52917h0.35719v-1.3229h-2.6458v4.4979c0.01765 0.33514-0.16316 0.67028-0.5424 1.0054l-0.013229 0.03969c-0.3175 0.30868-0.68351 0.48507-1.098 0.52917h-0.013229c-0.45861 0.044096-0.83344-0.083788-1.1245-0.38365-0.29986-0.29104-0.42333-0.66146-0.37042-1.1113 0.035277-0.44097 0.20726-0.82462 0.51594-1.1509l0.026458-0.013229c0.29104-0.28222 0.60854-0.45861 0.9525-0.52917h0.013229l0.59531 0.026458v-4.2333c-0.017647-0.54681 0.19844-0.81139 0.64823-0.79375h3.5851c0.52917 0 0.79375 0.25576 0.79375 0.76729" fill="#fff"/>
	<path d="m10.028 3.175h-1.0451v1.3229h1.0451v-1.3229m0.82021-0.26458v7.4083c0 0.14993-0.05292 0.27781-0.15875 0.38365-0.10583 0.09701-0.22931 0.14552-0.37042 0.14552h-7.4083c-0.14993 0-0.27781-0.04851-0.38365-0.14552-0.09702-0.10583-0.14552-0.23372-0.14552-0.38365v-7.3951c0-0.14993 0.04851-0.27781 0.14552-0.38365 0.10583-0.10583 0.23371-0.15875 0.38365-0.15875h7.4083c0.14111 0 0.26458 0.052917 0.37042 0.15875 0.10583 0.10583 0.15875 0.22931 0.15875 0.37042m-5.8341 0.26458v3.175h3.175v-3.175h-3.175m3.9688 6.8792h1.0451v-1.3229h-1.0451v1.3229m0-2.9104h1.0451v-1.3229h-1.0451v1.3229m-0.79375 2.9104v-2.9104h-3.175v2.9104h3.175m-3.982-5.5563v-1.3229h-1.0451v1.3229h1.0451m-1.0451 4.2333v1.3229h1.0451v-1.3229h-1.0451m0-1.5875h1.0451v-1.3229h-1.0451v1.3229" fill="#00f"/>
</svg>
