<?xml version="1.0" encoding="UTF-8" standalone="no"?>
<!-- Generator: Adobe Illustrator 16.0.0, SVG Export Plug-In . SVG Version: 6.00 Build 0)  -->

<svg
   version="1.1"
   id="Capa_1"
   x="0px"
   y="0px"
   width="956.815px"
   height="956.815px"
   viewBox="0 0 956.815 956.815"
   style="enable-background:new 0 0 956.815 956.815;"
   xml:space="preserve"
   sodipodi:docname="crop.svg"
   inkscape:version="1.1.2 (b8e25be833, 2022-02-05)"
   xmlns:inkscape="http://www.inkscape.org/namespaces/inkscape"
   xmlns:sodipodi="http://sodipodi.sourceforge.net/DTD/sodipodi-0.dtd"
   xmlns="http://www.w3.org/2000/svg"
   xmlns:svg="http://www.w3.org/2000/svg"><defs
   id="defs45" /><sodipodi:namedview
   id="namedview43"
   pagecolor="#ffffff"
   bordercolor="#666666"
   borderopacity="1.0"
   inkscape:pageshadow="2"
   inkscape:pageopacity="0.0"
   inkscape:pagecheckerboard="0"
   showgrid="false"
   inkscape:zoom="0.75145143"
   inkscape:cx="478.4075"
   inkscape:cy="477.74212"
   inkscape:window-width="3840"
   inkscape:window-height="2107"
   inkscape:window-x="-8"
   inkscape:window-y="22"
   inkscape:window-maximized="1"
   inkscape:current-layer="Capa_1" />
<g
   id="g10"
   style="fill:#008000">
	<path
   d="M137.621,162.622H20c-11.046,0-20,8.954-20,20v72.919c0,11.046,8.954,20,20,20h117.622L137.621,162.622L137.621,162.622z"
   id="path2"
   style="fill:#008000" />
	<path
   d="M774.193,956.815c11.046,0,20-8.954,20-20V819.193H681.274v117.621c0,11.046,8.954,20,20,20L774.193,956.815   L774.193,956.815z"
   id="path4"
   style="fill:#008000" />
	<path
   d="M794.193,656.275V182.622c0-11.046-8.954-20-20-20H300.54v112.919h380.734v380.734H794.193z"
   id="path6"
   style="fill:#008000" />
	<path
   d="M936.814,681.275H794.193H681.274H275.54V275.541V162.622V20c0-11.046-8.954-20-20-20h-72.918c-11.046,0-20,8.954-20,20   v142.622v112.919v498.653c0,11.046,8.954,20,20,20h498.653h112.918h142.622c11.045,0,20-8.954,20-20v-72.918   C956.814,690.229,947.86,681.275,936.814,681.275z"
   id="path8"
   style="fill:#008000" />
</g>
<g
   id="g12">
</g>
<g
   id="g14">
</g>
<g
   id="g16">
</g>
<g
   id="g18">
</g>
<g
   id="g20">
</g>
<g
   id="g22">
</g>
<g
   id="g24">
</g>
<g
   id="g26">
</g>
<g
   id="g28">
</g>
<g
   id="g30">
</g>
<g
   id="g32">
</g>
<g
   id="g34">
</g>
<g
   id="g36">
</g>
<g
   id="g38">
</g>
<g
   id="g40">
</g>
</svg>
