<?xml version="1.0" encoding="UTF-8"?>
<!-- Created with Inkscape (http://www.inkscape.org/) -->
<svg width="32.659mm" height="32.659mm" version="1.1" viewBox="0 0 32.659 32.659" xmlns="http://www.w3.org/2000/svg">
	<g transform="translate(-23.098 -21.826)">
		<g transform="matrix(.26458 0 0 .26458 -314.91 -173.87)">
			<path d="m1344.2 739.65-0.02-0.021h-45.535c-1.947 0-3.525 1.58-3.525 3.527v116.38c0 1.947 1.578 3.525 3.525 3.525h81.115c1.947 0 3.525-1.578 3.525-3.525v-80.809h-39.082v-39.08z" fill="#30bf77"/>
			<polygon points="1344.2 739.65 1344.2 778.73 1383.3 778.73" fill="#49c985"/>
			<polygon points="1383.3 817.82 1383.3 778.74 1383.3 778.73 1344.2 778.73" fill="#333" opacity=".1"/>
		</g>
	</g>
	<g transform="translate(1.8567 8.918)" fill="#f00" stroke-width=".26458">
		<path d="m16.272 19.108v-5.5578h2.023c0.62018 0 1.0967 0.11377 1.4298 0.34105 0.33311 0.22728 0.50033 0.54769 0.50033 0.96123 0 0.29977-0.10134 0.56198-0.30427 0.78687-0.20267 0.2249-0.46196 0.381-0.77735 0.46884v0.01561c0.39529 0.04921 0.71146 0.195 0.94774 0.43788 0.2368 0.24289 0.35454 0.53869 0.35454 0.88741 0 0.50906-0.18203 0.91255-0.5461 1.2113-0.36433 0.29819-0.86201 0.44741-1.4925 0.44741h-2.1352zm1.2515-4.6352v1.3176h0.55033c0.2585 0 0.46196-0.06244 0.61092-0.18812 0.14843-0.12515 0.22278-0.29766 0.22278-0.51726 0-0.40825-0.3048-0.61225-0.91466-0.61225zm0 2.2479v1.465h0.67839c0.28945 0 0.5162-0.0672 0.67998-0.20161 0.16431-0.13441 0.24606-0.31776 0.24606-0.55033 0-0.22225-0.0807-0.39661-0.24183-0.52335-0.16166-0.12674-0.38708-0.18997-0.67654-0.18997h-0.68606z"/>
		<path d="m22.315 17.194v1.9145h-1.2515v-5.5578h1.9611c1.4004 0 2.1005 0.59028 2.1005 1.7711 0 0.55801-0.20108 1.0094-0.60298 1.3547-0.40164 0.34475-0.93848 0.51726-1.6103 0.51726h-0.5969zm0-2.6821v1.7325h0.49239c0.66675 0 0.99986-0.2921 0.99986-0.87604 0-0.57097-0.33338-0.85646-0.99986-0.85646z"/>
		<path d="m15.655 19.108h-3.3332v-5.5578h3.2049v1.0197h-1.9534v1.2361h1.818v1.0155h-1.818v1.2713h2.0815v1.0152z"/>
		<path d="m11.704 13.551-1.4687 5.5578h-1.3875l-0.92233-3.5658c-0.0492-0.186-0.0791-0.39396-0.0894-0.62389h-0.0156c-0.0233 0.25321-0.0569 0.46117-0.10081 0.62389l-0.94562 3.5658h-1.4454l-1.4613-5.5578h1.3684l0.7829 3.7013c0.0336 0.15769 0.058 0.36936 0.0733 0.63553h0.0233c0.0103-0.19897 0.0481-0.41592 0.11271-0.65114l1.0078-3.6859h1.3409l0.91043 3.7322c0.0336 0.13705 0.0635 0.33602 0.0894 0.5969h0.0156c0.0103-0.20399 0.0373-0.4109 0.0812-0.62018l0.7673-3.7092h1.2634z"/>
	</g>
</svg>
