<?xml version="1.0" encoding="UTF-8" standalone="no"?>
<!-- Created with Inkscape (http://www.inkscape.org/) -->

<svg
   width="32.659mm"
   height="32.659mm"
   version="1.1"
   viewBox="0 0 32.659 32.659"
   id="svg20"
   sodipodi:docname="file_webp_unchecked.svg"
   inkscape:version="1.1.2 (b8e25be833, 2022-02-05)"
   xmlns:inkscape="http://www.inkscape.org/namespaces/inkscape"
   xmlns:sodipodi="http://sodipodi.sourceforge.net/DTD/sodipodi-0.dtd"
   xmlns="http://www.w3.org/2000/svg"
   xmlns:svg="http://www.w3.org/2000/svg">
  <defs
     id="defs24" />
  <sodipodi:namedview
     id="namedview22"
     pagecolor="#ffffff"
     bordercolor="#666666"
     borderopacity="1.0"
     inkscape:pageshadow="2"
     inkscape:pageopacity="0.0"
     inkscape:pagecheckerboard="0"
     inkscape:document-units="mm"
     showgrid="false"
     inkscape:zoom="2.9124501"
     inkscape:cx="78.284604"
     inkscape:cy="29.18505"
     inkscape:window-width="1818"
     inkscape:window-height="1497"
     inkscape:window-x="1867"
     inkscape:window-y="366"
     inkscape:window-maximized="0"
     inkscape:current-layer="svg20" />
  <g
     id="g1856">
    <g
       id="g1818"
       transform="translate(-23.0975,-21.825664)">
      <g
         id="g608"
         transform="matrix(0.26458333,0,0,0.26458333,-314.91305,-173.86882)">
        <path
           fill="#30bf77"
           d="m 1344.235,739.654 -0.02,-0.021 h -45.535 c -1.947,0 -3.525,1.58 -3.525,3.527 v 116.383 c 0,1.947 1.578,3.525 3.525,3.525 h 81.115 c 1.947,0 3.525,-1.578 3.525,-3.525 v -80.803 -0.006 h -39.082 v -39.08 z"
           id="path602" />
        <polygon
           fill="#49c985"
           points="1344.235,778.734 1383.317,778.734 1344.235,739.654 "
           id="polygon604" />
        <polygon
           opacity="0.1"
           fill="#333333"
           points="1383.317,778.734 1344.235,778.734 1383.321,817.82 1383.321,778.74 "
           id="polygon606" />
      </g>
    </g>
    <g
       id="g1364"
       transform="translate(1.8566892,8.918011)">
      <path
         fill="#f1f2f2"
         d="m 16.272086,19.108419 v -5.557837 h 2.023004 c 0.620183,0 1.096698,0.113771 1.429808,0.341048 0.333111,0.227277 0.500328,0.547687 0.500328,0.961231 0,0.299773 -0.101336,0.561975 -0.304271,0.786871 -0.202671,0.224896 -0.461963,0.381 -0.777346,0.468842 v 0.01561 c 0.395287,0.04921 0.711464,0.194998 0.947737,0.437885 0.236802,0.242888 0.354542,0.538692 0.354542,0.887413 0,0.509058 -0.182033,0.912548 -0.5461,1.211262 -0.364331,0.298186 -0.862012,0.447411 -1.492515,0.447411 h -2.135187 z m 1.251479,-4.635235 v 1.317625 h 0.550333 c 0.258498,0 0.461963,-0.06244 0.610923,-0.188119 0.148432,-0.125148 0.22278,-0.297656 0.22278,-0.51726 0,-0.408252 -0.3048,-0.612246 -0.914665,-0.612246 z m 0,2.2479 v 1.464998 h 0.678392 c 0.289454,0 0.516202,-0.0672 0.679979,-0.201613 0.164306,-0.134408 0.246062,-0.317764 0.246062,-0.550333 0,-0.22225 -0.0807,-0.39661 -0.241829,-0.523346 -0.16166,-0.126735 -0.387085,-0.189971 -0.676539,-0.189971 h -0.686065 z"
         id="path300"
         style="stroke-width:0.264583" />
      <path
         fill="#f1f2f2"
         d="m 22.3149,17.193894 v 1.914525 h -1.251479 v -5.557837 h 1.961091 c 1.40044,0 2.100527,0.590285 2.100527,1.771121 0,0.558006 -0.201083,1.009385 -0.602985,1.354666 -0.401637,0.344753 -0.938477,0.517261 -1.610254,0.517261 h -0.5969 z m 0,-2.682081 v 1.732492 h 0.49239 c 0.66675,0 0.99986,-0.2921 0.99986,-0.876035 0,-0.570971 -0.333375,-0.856457 -0.99986,-0.856457 z"
         id="path304"
         style="stroke-width:0.264583" />
      <path
         fill="#f1f2f2"
         d="m 15.654552,19.108419 h -3.333221 v -5.557837 h 3.204898 v 1.019704 H 13.57281 v 1.236133 h 1.817952 V 16.82189 H 13.57281 v 1.271323 h 2.081477 v 1.015206 z"
         id="path396"
         style="stroke-width:0.264583" />
      <path
         fill="#f1f2f2"
         d="m 11.703796,13.550846 -1.4687,5.557837 H 8.8476159 l -0.92233,-3.565789 c -0.0492,-0.186002 -0.0791,-0.393965 -0.0894,-0.623888 h -0.0156 c -0.0233,0.253206 -0.0569,0.461169 -0.10081,0.623888 l -0.94562,3.565789 h -1.44542 l -1.46129,-5.557837 h 1.36842 l 0.7829,3.701256 c 0.0336,0.157692 0.058,0.369358 0.0733,0.635529 h 0.0233 c 0.0103,-0.198967 0.0481,-0.415925 0.11271,-0.651139 l 1.0078,-3.685911 h 1.34091 l 0.91043,3.732213 c 0.0336,0.137054 0.0635,0.33602 0.0894,0.5969 h 0.0156 c 0.0103,-0.203994 0.0373,-0.410898 0.0812,-0.620184 l 0.7673001,-3.709193 h 1.26338 z"
         id="path836"
         style="stroke-width:0.264583" />
    </g>
  </g>
</svg>
