<?xml version="1.0" encoding="UTF-8"?>
<!-- Created with Inkscape (http://www.inkscape.org/) -->
<svg width="32.659mm" height="32.659mm" version="1.1" viewBox="0 0 32.659 32.659" xmlns="http://www.w3.org/2000/svg">
	<g transform="matrix(.26458 0 0 .26458 -124.53 -27.46)">
		<path d="m537.38 103.81-0.02-0.021h-45.535c-1.947 0-3.526 1.579-3.526 3.527v116.38c0 1.947 1.579 3.526 3.526 3.526h81.115c1.947 0 3.525-1.579 3.525-3.526v-80.803l-4e-3 -5e-3h-39.082v-39.08z" fill="#37c49c"/>
		<polygon points="537.38 103.81 537.38 142.89 576.46 142.89" fill="#4ecea6"/>
	</g>
	<polygon transform="matrix(.26458 0 0 .26458 -123.88 -27.46)" points="573.99 181.98 573.99 142.9 573.99 142.89 534.9 142.89" fill="#333" opacity=".1"/>
	<g transform="matrix(.26458 0 0 .26458 -124.53 -27.46)" fill="#f00">
		<path d="m508.96 202.48v7.236h-4.732v-21.006h7.412c5.293 0 7.939 2.231 7.939 6.694 0 2.109-0.759 3.815-2.277 5.12-1.519 1.303-3.547 1.955-6.086 1.955h-2.256zm0-10.137v6.548h1.859c2.52 0 3.779-1.104 3.779-3.311 0-2.158-1.26-3.237-3.779-3.237z"/>
		<path d="m540.77 209.71h-4.775l-8.657-13.198c-0.508-0.771-0.859-1.353-1.055-1.743h-0.059c0.078 0.742 0.117 1.875 0.117 3.398v11.543h-4.468v-21.006h5.098l8.335 12.788c0.381 0.576 0.732 1.147 1.055 1.714h0.059c-0.078-0.488-0.117-1.45-0.117-2.886v-11.616h4.468v21.006z"/>
		<path d="m562.03 208.31c-2.051 1.182-4.6 1.772-7.646 1.772-3.379 0-6.043-0.935-7.99-2.806-1.949-1.869-2.923-4.445-2.923-7.727 0-3.301 1.064-5.991 3.193-8.071s4.961-3.12 8.496-3.12c2.227 0 4.189 0.308 5.889 0.923v4.438c-1.621-0.938-3.604-1.406-5.947-1.406-1.963 0-3.562 0.637-4.798 1.912-1.234 1.273-1.853 2.976-1.853 5.104 0 2.158 0.554 3.828 1.663 5.01 1.107 1.182 2.604 1.772 4.489 1.772 1.133 0 2.031-0.161 2.695-0.483v-4.102h-4.204v-3.779h8.936z"/>
	</g>
</svg>
