<?xml version="1.0" encoding="UTF-8" standalone="no"?>
<!-- Created with Inkscape (http://www.inkscape.org/) -->

<svg
   width="32.659mm"
   height="32.659mm"
   version="1.1"
   viewBox="0 0 32.659 32.659"
   id="svg18"
   sodipodi:docname="file_bmp_checked.svg"
   inkscape:version="1.1.2 (b8e25be833, 2022-02-05)"
   xmlns:inkscape="http://www.inkscape.org/namespaces/inkscape"
   xmlns:sodipodi="http://sodipodi.sourceforge.net/DTD/sodipodi-0.dtd"
   xmlns="http://www.w3.org/2000/svg"
   xmlns:svg="http://www.w3.org/2000/svg">
  <defs
     id="defs22" />
  <sodipodi:namedview
     id="namedview20"
     pagecolor="#ffffff"
     bordercolor="#666666"
     borderopacity="1.0"
     inkscape:pageshadow="2"
     inkscape:pageopacity="0.0"
     inkscape:pagecheckerboard="0"
     inkscape:document-units="mm"
     showgrid="false"
     inkscape:zoom="5.8249002"
     inkscape:cx="61.889472"
     inkscape:cy="61.631957"
     inkscape:window-width="1854"
     inkscape:window-height="1329"
     inkscape:window-x="1432"
     inkscape:window-y="665"
     inkscape:window-maximized="0"
     inkscape:current-layer="svg18" />
  <g
     id="g834">
    <path
       d="M 17.64951,0.0060498 17.644218,4.9362e-4 H 5.5965679 c -0.5151373,0 -0.9331737,0.41777182 -0.9331737,0.93317366 V 31.725488 c 0,0.515137 0.4180364,0.932909 0.9331737,0.932909 H 27.057975 c 0.515137,0 0.932644,-0.417772 0.932644,-0.932909 V 10.34663 l -0.0011,-0.0013 H 17.649245 V 0.00552064 Z"
       fill="#48b8f7"
       id="path2"
       style="stroke-width:0.26458" />
    <polygon
       points="940.81,142.89 979.89,142.89 940.81,103.81 "
       fill="#6bd0fc"
       id="polygon4"
       transform="matrix(0.26458,0,0,0.26458,-231.27,-27.46)" />
    <polygon
       points="979.89,142.89 940.81,142.89 979.89,181.98 979.89,142.9 "
       fill="#333333"
       opacity="0.1"
       id="polygon6"
       transform="matrix(0.26458,0,0,0.26458,-231.27,-27.46)" />
    <g
       fill="#f1f2f2"
       id="g14"
       transform="matrix(0.26458,0,0,0.26458,-231.27,-27.46)"
       style="fill:#ff0000">
      <path
         d="m 906.14,209.71 v -21.006 h 7.646 c 2.344,0 4.145,0.43 5.404,1.289 1.259,0.859 1.891,2.07 1.891,3.633 0,1.133 -0.383,2.124 -1.15,2.974 -0.766,0.85 -1.746,1.44 -2.938,1.772 v 0.059 c 1.494,0.186 2.689,0.737 3.582,1.655 0.895,0.918 1.34,2.036 1.34,3.354 0,1.924 -0.688,3.449 -2.064,4.578 -1.377,1.127 -3.258,1.691 -5.641,1.691 h -8.07 z m 4.73,-17.519 v 4.98 h 2.08 c 0.977,0 1.746,-0.236 2.309,-0.711 0.561,-0.473 0.842,-1.125 0.842,-1.955 0,-1.543 -1.152,-2.314 -3.457,-2.314 z m 0,8.496 v 5.537 h 2.564 c 1.094,0 1.951,-0.254 2.57,-0.762 0.621,-0.508 0.93,-1.201 0.93,-2.08 0,-0.84 -0.305,-1.499 -0.914,-1.978 -0.611,-0.479 -1.463,-0.718 -2.557,-0.718 h -2.593 z"
         id="path8"
         style="fill:#ff0000" />
      <path
         d="m 948.53,209.71 h -4.672 v -12.568 c 0,-1.357 0.059,-2.856 0.176,-4.497 h -0.117 c -0.244,1.289 -0.465,2.217 -0.66,2.783 l -4.922,14.282 h -3.867 l -5.01,-14.136 c -0.137,-0.381 -0.355,-1.357 -0.658,-2.93 h -0.133 c 0.127,2.07 0.191,3.887 0.191,5.449 v 11.616 h -4.264 v -21.006 h 6.93 l 4.291,12.451 c 0.342,0.996 0.592,1.997 0.748,3.003 h 0.088 c 0.264,-1.162 0.541,-2.173 0.834,-3.032 l 4.293,-12.422 h 6.752 z"
         id="path10"
         style="fill:#ff0000" />
      <path
         d="m 957.26,202.48 v 7.236 h -4.73 V 188.71 h 7.412 c 5.293,0 7.939,2.231 7.939,6.694 0,2.109 -0.76,3.815 -2.279,5.12 -1.518,1.303 -3.547,1.955 -6.086,1.955 h -2.256 z m 0,-10.137 v 6.548 h 1.861 c 2.52,0 3.779,-1.104 3.779,-3.311 0,-2.158 -1.26,-3.237 -3.779,-3.237 z"
         id="path12"
         style="fill:#ff0000" />
    </g>
  </g>
</svg>
