<?xml version="1.0" encoding="UTF-8"?>
<!-- Created with Inkscape (http://www.inkscape.org/) -->
<svg width="32.659mm" height="32.659mm" version="1.1" viewBox="0 0 32.659 32.659" xmlns="http://www.w3.org/2000/svg">
	<g transform="matrix(.26458 0 0 .26458 -53.269 -27.46)">
		<path d="m268.43 103.81-0.02-0.02h-45.535c-1.947 0-3.527 1.578-3.527 3.527v116.38c0 1.947 1.58 3.527 3.527 3.527h81.115c1.947 0 3.525-1.58 3.525-3.527v-80.803l-4e-3 -4e-3h-39.082v-39.081z" fill="#38c1ba"/>
		<polygon points="307.51 142.89 268.43 103.81 268.43 142.89" fill="#52ccc3"/>
		<polygon points="268.43 142.89 307.51 181.97 307.51 142.89 307.51 142.89" fill="#333" opacity=".1"/>
		<g fill="#f1f2f2">
			<path d="m249.28 201.38c0 2.813-0.65 4.967-1.955 6.461-1.303 1.494-3.191 2.24-5.662 2.24-1.104 0-2.123-0.189-3.061-0.57v-4.439c0.811 0.615 1.719 0.924 2.725 0.924 2.158 0 3.236-1.602 3.236-4.805v-12.48h4.717z"/>
			<path d="m257.83 202.48v7.236h-4.732v-21.006h7.412c5.293 0 7.939 2.23 7.939 6.693 0 2.109-0.76 3.816-2.277 5.12-1.52 1.304-3.547 1.956-6.086 1.956h-2.256zm0-10.137v6.547h1.859c2.52 0 3.779-1.104 3.779-3.311 0-2.158-1.26-3.236-3.779-3.236z"/>
			<path d="m287.84 208.31c-2.051 1.182-4.6 1.771-7.646 1.771-3.379 0-6.043-0.935-7.99-2.805-1.949-1.87-2.922-4.445-2.922-7.727 0-3.301 1.064-5.992 3.193-8.072s4.961-3.119 8.496-3.119c2.227 0 4.189 0.307 5.889 0.922v4.439c-1.621-0.938-3.604-1.406-5.947-1.406-1.963 0-3.563 0.637-4.799 1.911-1.234 1.274-1.852 2.976-1.852 5.104 0 2.158 0.553 3.828 1.662 5.01 1.107 1.182 2.605 1.773 4.49 1.773 1.133 0 2.031-0.162 2.695-0.484v-4.102h-4.205v-3.779h8.936z"/>
		</g>
	</g>
</svg>
