<?xml version="1.0" encoding="UTF-8"?>
<!-- Created with Inkscape (http://www.inkscape.org/) -->
<svg width="32.659mm" height="32.659mm" version="1.1" viewBox="0 0 32.659 32.659" xmlns="http://www.w3.org/2000/svg">
	<g transform="matrix(.26458 0 0 .26458 -231.27 -27.46)">
		<path d="m940.81 103.81-0.02-0.021h-45.535c-1.947 0-3.527 1.579-3.527 3.527v116.38c0 1.947 1.58 3.526 3.527 3.526h81.115c1.947 0 3.525-1.579 3.525-3.526v-80.803l-4e-3 -5e-3h-39.082v-39.08z" fill="#48b8f7"/>
		<polygon points="979.89 142.89 940.81 103.81 940.81 142.89" fill="#6bd0fc"/>
		<polygon points="979.89 181.98 979.89 142.9 979.89 142.89 940.81 142.89" fill="#333" opacity=".1"/>
		<g fill="#f1f2f2">
			<path d="m906.14 209.71v-21.006h7.646c2.344 0 4.145 0.43 5.404 1.289s1.891 2.07 1.891 3.633c0 1.133-0.383 2.124-1.15 2.974-0.766 0.85-1.746 1.44-2.938 1.772v0.059c1.494 0.186 2.689 0.737 3.582 1.655 0.895 0.918 1.34 2.036 1.34 3.354 0 1.924-0.688 3.449-2.064 4.578-1.377 1.127-3.258 1.691-5.641 1.691h-8.07zm4.73-17.519v4.98h2.08c0.977 0 1.746-0.236 2.309-0.711 0.561-0.473 0.842-1.125 0.842-1.955 0-1.543-1.152-2.314-3.457-2.314zm0 8.496v5.537h2.564c1.094 0 1.951-0.254 2.57-0.762 0.621-0.508 0.93-1.201 0.93-2.08 0-0.84-0.305-1.499-0.914-1.978-0.611-0.479-1.463-0.718-2.557-0.718h-2.593z"/>
			<path d="m948.53 209.71h-4.672v-12.568c0-1.357 0.059-2.856 0.176-4.497h-0.117c-0.244 1.289-0.465 2.217-0.66 2.783l-4.922 14.282h-3.867l-5.01-14.136c-0.137-0.381-0.355-1.357-0.658-2.93h-0.133c0.127 2.07 0.191 3.887 0.191 5.449v11.616h-4.264v-21.006h6.93l4.291 12.451c0.342 0.996 0.592 1.997 0.748 3.003h0.088c0.264-1.162 0.541-2.173 0.834-3.032l4.293-12.422h6.752z"/>
			<path d="m957.26 202.48v7.236h-4.73v-21.006h7.412c5.293 0 7.939 2.231 7.939 6.694 0 2.109-0.76 3.815-2.279 5.12-1.518 1.303-3.547 1.955-6.086 1.955h-2.256zm0-10.137v6.548h1.861c2.52 0 3.779-1.104 3.779-3.311 0-2.158-1.26-3.237-3.779-3.237z"/>
		</g>
	</g>
</svg>
