<?xml version="1.0" encoding="UTF-8" standalone="no"?>
<!-- Created with Inkscape (http://www.inkscape.org/) -->

<svg
   width="32.659mm"
   height="32.659mm"
   version="1.1"
   viewBox="0 0 32.659 32.659"
   id="svg24"
   sodipodi:docname="file_no_checked.svg"
   inkscape:version="1.1.2 (b8e25be833, 2022-02-05)"
   xmlns:inkscape="http://www.inkscape.org/namespaces/inkscape"
   xmlns:sodipodi="http://sodipodi.sourceforge.net/DTD/sodipodi-0.dtd"
   xmlns="http://www.w3.org/2000/svg"
   xmlns:svg="http://www.w3.org/2000/svg">
  <defs
     id="defs28" />
  <sodipodi:namedview
     id="namedview26"
     pagecolor="#ffffff"
     bordercolor="#666666"
     borderopacity="1.0"
     inkscape:pageshadow="2"
     inkscape:pageopacity="0.0"
     inkscape:pagecheckerboard="0"
     inkscape:document-units="mm"
     showgrid="false"
     inkscape:zoom="5.8249002"
     inkscape:cx="61.717796"
     inkscape:cy="61.631958"
     inkscape:window-width="3840"
     inkscape:window-height="2107"
     inkscape:window-x="-8"
     inkscape:window-y="22"
     inkscape:window-maximized="1"
     inkscape:current-layer="svg24" />
  <g
     id="g892">
    <path
       d="m17.652 0.0056349-0.0053-0.0055562h-12.048c-0.51514 0-0.93319 0.41778-0.93319 0.93319v30.793c0 0.51514 0.41804 0.93292 0.93319 0.93292h21.462c0.51514 0 0.93266-0.41778 0.93266-0.93292v-21.379l-0.0011-0.0013h-10.34v-10.34z"
       fill="#ccc"
       stroke-width=".26458"
       id="path2" />
    <polygon
       transform="matrix(.26458 0 0 .26458 -231.27 -27.46)"
       points="940.81 103.81 940.81 142.89 979.89 142.89"
       fill="#808080"
       id="polygon4" />
    <polygon
       transform="matrix(.26458 0 0 .26458 -231.27 -27.46)"
       points="979.89 181.98 979.89 142.9 979.89 142.89 940.81 142.89"
       fill="#333"
       opacity=".1"
       id="polygon6" />
    <circle
       cx="16.33"
       cy="16.33"
       r="4.8924"
       fill="#f55"
       stroke-linecap="round"
       stroke-width=".09715"
       style="paint-order:stroke fill markers;fill:#ff0000"
       id="circle8" />
    <g
       transform="matrix(.019472 0 0 .019472 13.438 13.438)"
       fill="#fff"
       id="g12">
      <path
         d="m293.8 219.5-71.019-71.003 70.998-71.015c4.258-4.259 4.256-11.163-2e-3 -15.422l-58.861-58.861c-2.046-2.045-4.82-3.194-7.712-3.194-2.893 0-5.667 1.15-7.712 3.196l-70.999 71.025-71.021-71.002c-4.26-4.258-11.162-4.257-15.422 1e-3l-58.861 58.861c-2.045 2.046-3.194 4.82-3.194 7.713s1.15 5.666 3.196 7.711l71.035 71.01-70.983 71.01c-4.257 4.258-4.257 11.16 0 15.419l58.834 58.859c2.045 2.046 4.819 3.196 7.712 3.196h1e-3c2.893 0 5.667-1.149 7.712-3.195l71.013-71.029 71.005 70.979c4.258 4.258 11.161 4.258 15.419 0l58.86-58.834c2.046-2.045 3.196-4.819 3.196-7.713 0-2.892-1.149-5.666-3.195-7.712z"
         fill="#fff"
         id="path10" />
    </g>
    <g
       transform="translate(9.4066 8.9178)"
       fill="#f1f2f2"
       stroke-width=".26458"
       id="g22"
       style="fill:#ff0000">
      <path
         d="m13.678 19.108h-1.2634l-2.2905-3.492c-0.13441-0.20399-0.22728-0.35798-0.27914-0.46117h-0.01561c0.020638 0.19632 0.030956 0.49609 0.030956 0.89905v3.0541h-1.1822v-5.5578h1.3488l2.2053 3.3835c0.10081 0.1524 0.19368 0.30348 0.27914 0.4535h0.01561c-0.02064-0.12912-0.03096-0.38365-0.03096-0.76359v-3.0734h1.1822v5.5578z"
         id="path14"
         style="fill:#ff0000" />
      <path
         d="m17.774 19.108h-3.3332v-5.5578h3.2054v1.0194h-1.9534v1.2364h1.8174v1.0155h-1.8174v1.2713h2.0809v1.0152z"
         id="path16"
         style="fill:#ff0000" />
      <path
         d="m5.1679 19.203c-0.79587 0-1.4444-0.25903-1.9457-0.77708-0.50139-0.51832-0.75195-1.1933-0.75195-2.0251 0-0.87842 0.25479-1.5891 0.76385-2.1317 0.50906-0.54266 1.1835-0.81386 2.023-0.81386 0.79322 0 1.4346 0.25956 1.924 0.77893 0.48948 0.51938 0.73448 1.2041 0.73448 2.0542 0 0.87339-0.254 1.5774-0.76174 2.1122-0.50774 0.53472-1.1695 0.80248-1.986 0.80248zm0.05424-4.6704c-0.43921 0-0.78819 0.16484-1.0464 0.49398-0.2585 0.32967-0.38761 0.7657-0.38761 1.3081 0 0.55033 0.12912 0.98584 0.38761 1.3062 0.2585 0.32041 0.5969 0.48048 1.0155 0.48048 0.43154 0 0.77417-0.15558 1.0274-0.46725 0.25321-0.31115 0.37994-0.74348 0.37994-1.2962 0-0.57626-0.12303-1.0245-0.36856-1.3449-0.24553-0.32041-0.58155-0.48048-1.0078-0.48048z"
         id="path18"
         style="fill:#ff0000" />
      <path
         d="m1.7072 19.108h-1.2634l-2.2905-3.492c-0.13441-0.20399-0.22728-0.35798-0.27914-0.46117h-0.01561c0.020638 0.19632 0.030956 0.49609 0.030956 0.89905v3.0541h-1.1822v-5.5578h1.3488l2.2053 3.3835c0.10081 0.1524 0.19368 0.30348 0.27914 0.4535h0.01561c-0.020637-0.12912-0.030956-0.38365-0.030956-0.76359v-3.0734h1.1822v5.5578z"
         id="path20"
         style="fill:#ff0000" />
    </g>
  </g>
</svg>
