<?xml version="1.0" encoding="UTF-8"?>
<!-- Created with Inkscape (http://www.inkscape.org/) -->
<svg width="32.659mm" height="32.659mm" version="1.1" viewBox="0 0 32.659 32.659" xmlns="http://www.w3.org/2000/svg">
	<g transform="matrix(.26458 0 0 .26458 -88.949 -27.46)">
		<path d="m402.9 103.81-0.02-0.02h-45.535c-1.947 0-3.527 1.578-3.527 3.527v116.38c0 1.947 1.58 3.527 3.527 3.527h81.115c1.947 0 3.525-1.58 3.525-3.527v-80.803l-4e-3 -4e-3h-39.082v-39.081z" fill="#ffc35a"/>
		<polygon points="441.98 142.89 402.9 103.81 402.9 142.89" fill="#ffce88"/>
		<polygon points="441.99 181.97 441.99 142.89 441.98 142.89 402.9 142.89" fill="#333" opacity=".1"/>
		<g fill="#f1f2f2">
			<path d="m387.48 192.56h-5.99v17.154h-4.746v-17.154h-5.963v-3.852h16.699z"/>
			<path d="m396.01 188.71v3.662h-1.758v13.682h1.758v3.662h-8.247v-3.662h1.758v-13.682h-1.758v-3.662z"/>
			<path d="m410.39 192.56h-7.412v5.156h6.812v3.838h-6.812v8.16h-4.731v-21.006h12.144v3.852z"/>
			<path d="m425.21 192.56h-7.412v5.156h6.813v3.838h-6.813v8.16h-4.73v-21.006h12.143v3.852z"/>
		</g>
	</g>
</svg>
