<?xml version="1.0" encoding="UTF-8" standalone="no"?>
<!-- Uploaded to: SVG Repo, www.svgrepo.com, Generator: SVG Repo Mixer Tools -->

<svg
   version="1.1"
   id="Layer_1"
   viewBox="0 0 297 297"
   xml:space="preserve"
   sodipodi:docname="memory_card.svg"
   inkscape:version="1.1.2 (b8e25be833, 2022-02-05)"
   xmlns:inkscape="http://www.inkscape.org/namespaces/inkscape"
   xmlns:sodipodi="http://sodipodi.sourceforge.net/DTD/sodipodi-0.dtd"
   xmlns="http://www.w3.org/2000/svg"
   xmlns:svg="http://www.w3.org/2000/svg"><defs
   id="defs45">
	
	
	
	
	
	
	
	
	
	
</defs><sodipodi:namedview
   id="namedview43"
   pagecolor="#ffffff"
   bordercolor="#666666"
   borderopacity="1.0"
   inkscape:pageshadow="2"
   inkscape:pageopacity="0.0"
   inkscape:pagecheckerboard="0"
   showgrid="false"
   inkscape:zoom="2.4208754"
   inkscape:cx="138.79277"
   inkscape:cy="148.29346"
   inkscape:window-width="3840"
   inkscape:window-height="2107"
   inkscape:window-x="-8"
   inkscape:window-y="22"
   inkscape:window-maximized="1"
   inkscape:current-layer="Layer_1" />
<g
   id="g852"
   transform="matrix(1.5590469,0,0,1.5590469,-83.017685,-83.019244)"><g
     id="g10">
		<path
   style="fill:#32373b"
   d="m 216.833,53.25 h -91.782 c -3.608,0 -7.068,1.433 -9.619,3.984 l -45.199,45.199 c -2.551,2.551 -3.984,6.011 -3.984,9.619 v 117.782 c 0,7.686 6.231,13.917 13.917,13.917 h 136.667 c 7.686,0 13.917,-6.231 13.917,-13.917 V 67.167 c 0,-7.686 -6.231,-13.917 -13.917,-13.917 z"
   id="path8" />
	</g><g
     id="g14">
		<path
   style="fill:#2c3033"
   d="M 216.833,53.25 H 147.5 v 190.5 h 69.333 c 7.686,0 13.917,-6.231 13.917,-13.917 V 67.167 c 0,-7.686 -6.231,-13.917 -13.917,-13.917 z"
   id="path12" />
	</g><g
     id="g18">
		<rect
   x="192.75"
   y="53.25"
   style="fill:#d39346"
   width="13"
   height="33"
   id="rect16" />
	</g><g
     id="g22">
		<rect
   x="99"
   y="148.5"
   style="fill:#bdc3c7"
   width="99"
   height="66"
   id="rect20" />
	</g><g
     id="g26">
		<rect
   x="140.75"
   y="53.25"
   style="fill:#f9b65f"
   width="13"
   height="33"
   id="rect24" />
	</g><g
     id="g30">
		<rect
   x="147.5"
   y="148.5"
   style="fill:#a1a5a8"
   width="50.5"
   height="66"
   id="rect28" />
	</g><g
     id="g34">
		<rect
   x="147.5"
   y="53.25"
   style="fill:#d39346"
   width="6.25"
   height="33"
   id="rect32" />
	</g><g
     id="g38">
		<rect
   x="166.75"
   y="53.25"
   style="fill:#d39346"
   width="13"
   height="33"
   id="rect36" />
	</g></g>
</svg>
