<?xml version="1.0" encoding="UTF-8" standalone="no"?>
<!-- Created with Inkscape (http://www.inkscape.org/) -->

<svg
   width="50"
   height="50"
   viewBox="0 0 13.229166 13.229167"
   version="1.1"
   id="svg830"
   sodipodi:docname="multimedia_mute.svg"
   inkscape:version="1.1.2 (b8e25be833, 2022-02-05)"
   xmlns:inkscape="http://www.inkscape.org/namespaces/inkscape"
   xmlns:sodipodi="http://sodipodi.sourceforge.net/DTD/sodipodi-0.dtd"
   xmlns="http://www.w3.org/2000/svg"
   xmlns:svg="http://www.w3.org/2000/svg">
  <sodipodi:namedview
     id="namedview832"
     pagecolor="#ffffff"
     bordercolor="#666666"
     borderopacity="1.0"
     inkscape:pageshadow="2"
     inkscape:pageopacity="0.0"
     inkscape:pagecheckerboard="0"
     inkscape:document-units="mm"
     showgrid="false"
     units="px"
     inkscape:zoom="7.2466938"
     inkscape:cx="55.197586"
     inkscape:cy="7.3136801"
     inkscape:window-width="1674"
     inkscape:window-height="1333"
     inkscape:window-x="2034"
     inkscape:window-y="220"
     inkscape:window-maximized="0"
     inkscape:current-layer="layer1" />
  <defs
     id="defs827" />
  <g
     inkscape:label="Layer 1"
     inkscape:groupmode="layer"
     id="layer1">
    <path
       d="M 4.82137,2.9129976 C 4.900745,2.6395957 5.0991825,2.507304 5.4166825,2.5161226 h 3.5851046 c 0.529166,0 0.79375,0.2557647 0.79375,0.7672916 v 3.9952083 0.092604 L 9.7161621,7.8077891 7.916995,6.0086225 8.1154325,5.9557058 H 8.4726201 V 4.6327892 H 6.5411617 L 4.82137,2.9129976 M 3.5778283,3.1908101 c 0.1058333,-0.1058334 0.2337144,-0.15875 0.3836458,-0.15875 0.1499315,0 0.2734019,0.052917 0.3704167,0.15875 l 6.0854162,6.0854165 c 0.105834,0.097015 0.15875,0.2204853 0.15875,0.3704167 0,0.1499314 -0.05292,0.2778125 -0.15875,0.3836457 -0.09701,0.09702 -0.220485,0.145521 -0.370416,0.145521 -0.1499319,0 -0.2778129,-0.04851 -0.3836459,-0.145521 L 3.5778283,3.9448725 C 3.4808136,3.8390392 3.4323075,3.7111581 3.4323075,3.5612267 c 0,-0.1499314 0.048506,-0.2734019 0.1455208,-0.3704166 m -0.396875,4.8683332 0.026458,-0.013229 C 3.4984533,7.763691 3.8159533,7.5873039 4.1599116,7.5167475 h 0.013229 l 0.5953125,0.026458 V 5.8763308 L 5.8267867,6.9346641 V 9.1307058 C 5.8444344,9.4658456 5.6636261,9.8009827 5.2843908,10.136123 l -0.013229,0.03969 c -0.3175,0.308681 -0.683506,0.485068 -1.0980208,0.529166 H 4.1599116 C 3.7013014,10.749075 3.3264742,10.621191 3.0354325,10.321331 2.7355723,10.030289 2.6120992,9.6598725 2.6650158,9.2100808 2.7002927,8.7691077 2.8722719,8.3854619 3.1809533,8.0591433 M 6.6073075,7.715185 8.0492867,9.1571641 C 7.6171348,9.1748119 7.2599473,9.033691 6.9777242,8.7338308 6.7131408,8.478066 6.5896677,8.1385183 6.6073075,7.715185"
       style="fill:#ffffff;stroke:none;stroke-width:0.264583"
       id="path16949" />
  </g>
</svg>
