<?xml version="1.0" encoding="UTF-8"?>
<!-- Created with Inkscape (http://www.inkscape.org/) -->
<svg width="50" height="50" version="1.1" viewBox="0 0 13.229 13.229" xmlns="http://www.w3.org/2000/svg">
	<path d="m10.186 3.2836v4.0878c-0.05292 0.48507-0.22931 0.88194-0.52917 1.1906h-0.02646c-0.3175 0.35278-0.69233 0.54681-1.1245 0.58208h-0.013227c-0.44979 0.044098-0.82462-0.092604-1.1245-0.4101-0.29104-0.28222-0.41452-0.66146-0.37042-1.1377 0.0441-0.42333 0.22049-0.79375 0.52917-1.1112 0.29986-0.29986 0.62618-0.47625 0.97896-0.52917h0.35719v-1.3229h-2.6458v4.4979c0.01765 0.33514-0.16316 0.67028-0.5424 1.0054l-0.013229 0.03969c-0.3175 0.30868-0.68351 0.48507-1.098 0.52917h-0.013229c-0.45861 0.044096-0.83344-0.083788-1.1245-0.38365-0.29986-0.29104-0.42333-0.66146-0.37042-1.1113 0.035277-0.44097 0.20726-0.82462 0.51594-1.1509l0.026458-0.013229c0.29104-0.28222 0.60854-0.45861 0.9525-0.52917h0.013229l0.59531 0.026458v-4.2333c-0.017647-0.54681 0.19844-0.81139 0.64823-0.79375h3.5851c0.52917 0 0.79375 0.25576 0.79375 0.76729" fill="#fff"/>
</svg>
