<?xml version="1.0" encoding="UTF-8"?>
<!-- Created with Inkscape (http://www.inkscape.org/) -->
<svg width="50" height="50" version="1.1" viewBox="0 0 13.229 13.229" xmlns="http://www.w3.org/2000/svg">
	<path d="m6.35 3.4528c0-0.14993 0.048507-0.27781 0.14552-0.38365 0.10583-0.10583 0.23372-0.15875 0.38365-0.15875h0.52917l3.7042 3.7042-3.7042 3.7042h-0.52917c-0.14993 0-0.27781-0.04851-0.38365-0.14552-0.097014-0.10583-0.14552-0.23371-0.14552-0.38365v-1.5875h-3.7042c-0.14993 0-0.27781-0.04851-0.38365-0.14552-0.097014-0.10583-0.14552-0.23372-0.14552-0.38365v-2.1034c0-0.14993 0.048507-0.27781 0.14552-0.38365 0.10583-0.10583 0.23372-0.15875 0.38365-0.15875h3.7042v-1.5743"/>
</svg>
