<?xml version="1.0" encoding="UTF-8"?>
<!-- Created with Inkscape (http://www.inkscape.org/) -->
<svg width="50" height="50" version="1.1" viewBox="0 0 13.229 13.229" xmlns="http://www.w3.org/2000/svg">
	<path d="m10.583 5.0271c0.14993 0 0.27781 0.052917 0.38365 0.15875 0.09701 0.10583 0.14552 0.23372 0.14552 0.38365v2.1034c0 0.14993-0.04851 0.27781-0.14552 0.38365-0.10583 0.097014-0.23372 0.14552-0.38365 0.14552h-3.7042v1.5875c0 0.14993-0.04851 0.27781-0.14552 0.38365-0.10583 0.09701-0.23372 0.14552-0.38365 0.14552h-0.52917l-3.7042-3.7042 3.7042-3.7042h0.52917c0.14993 0 0.27781 0.052917 0.38365 0.15875 0.09701 0.10583 0.14552 0.23372 0.14552 0.38365v1.5743h3.7042"/>
</svg>
