<?xml version="1.0" encoding="UTF-8"?>
<!-- Created with Inkscape (http://www.inkscape.org/) -->
<svg width="50" height="50" version="1.1" viewBox="0 0 13.229 13.229" xmlns="http://www.w3.org/2000/svg">
	<path d="m10.16 2.54c0.10583 0.10583 0.15875 0.22931 0.15875 0.37042v7.4083c0 0.14993-0.05292 0.27781-0.15875 0.38365-0.10583 0.09702-0.22931 0.14552-0.37042 0.14552h-1.0583c-0.14993 0-0.27781-0.04851-0.38365-0.14552-0.09702-0.10583-0.14552-0.23371-0.14552-0.38365v-3.7042l-4.2333 4.2333h-0.52917c-0.14993 0-0.27781-0.04851-0.38365-0.14552-0.097015-0.10583-0.14552-0.23371-0.14552-0.38365v-7.3951c0-0.14993 0.048506-0.27781 0.14552-0.38365 0.10583-0.10583 0.23371-0.15875 0.38365-0.15875h0.52917l4.2333 4.2333v-3.6909c0-0.14993 0.04851-0.27781 0.14552-0.38365 0.10583-0.10583 0.23371-0.15875 0.38365-0.15875h1.0583c0.14111 0 0.26458 0.052917 0.37042 0.15875"/>
</svg>
