<?xml version="1.0" encoding="UTF-8"?>
<!-- Created with Inkscape (http://www.inkscape.org/) -->
<svg width="50" height="50" version="1.1" viewBox="0 0 13.229 13.229" xmlns="http://www.w3.org/2000/svg">
	<path d="m9.7896 2.3812c0.14993 0 0.27781 0.052917 0.38365 0.15875 0.09701 0.10583 0.14552 0.23371 0.14552 0.38365v7.3951c0 0.14993-0.04851 0.27781-0.14552 0.38365-0.10583 0.09702-0.23371 0.14552-0.38365 0.14552h-0.52917l-4.2333-4.2333 4.2333-4.2333h0.52917m-6.8792 0.52917c0-0.14111 0.052917-0.26458 0.15875-0.37042 0.10583-0.10583 0.22931-0.15875 0.37042-0.15875h1.0583c0.14993 0 0.27781 0.052917 0.38365 0.15875 0.09702 0.10583 0.14552 0.23371 0.14552 0.38365v7.3951c0 0.14993-0.04851 0.27781-0.14552 0.38365-0.10583 0.09702-0.23371 0.14552-0.38365 0.14552h-1.0583c-0.14111 0-0.26458-0.04851-0.37042-0.14552-0.10583-0.10583-0.15875-0.23371-0.15875-0.38365v-7.4083"/>
</svg>
