<?xml version="1.0" encoding="UTF-8"?>
<!-- Created with Inkscape (http://www.inkscape.org/) -->
<svg width="50" height="50" version="1.1" viewBox="0 0 13.229 13.229" xmlns="http://www.w3.org/2000/svg">
	<path d="m11.496 2.54c0.09701 0.10583 0.14552 0.23371 0.14552 0.38365v7.3951c0 0.14993-0.04851 0.27781-0.14552 0.38365-0.10583 0.09701-0.23371 0.14552-0.38365 0.14552h-0.52917l-3.7042-3.7042v3.175c0 0.14993-0.04851 0.27781-0.14552 0.38365-0.10583 0.09701-0.23371 0.14552-0.38365 0.14552h-0.52917l-4.2333-4.2333 4.2333-4.2333h0.52917c0.14993 0 0.27781 0.052917 0.38365 0.15875 0.09701 0.10583 0.14552 0.23371 0.14552 0.38365v3.1618l3.7042-3.7042h0.52917c0.14993 0 0.27781 0.052917 0.38365 0.15875"/>
</svg>
