<?xml version="1.0" encoding="UTF-8" standalone="no"?>
<!-- Generator: Adobe Illustrator 19.0.0, SVG Export Plug-In . SVG Version: 6.00 Build 0)  -->

<svg
   version="1.1"
   id="Layer_1"
   x="0px"
   y="0px"
   viewBox="0 0 512 512"
   style="enable-background:new 0 0 512 512;"
   xml:space="preserve"
   sodipodi:docname="png.svg"
   inkscape:version="1.1.2 (b8e25be833, 2022-02-05)"
   xmlns:inkscape="http://www.inkscape.org/namespaces/inkscape"
   xmlns:sodipodi="http://sodipodi.sourceforge.net/DTD/sodipodi-0.dtd"
   xmlns="http://www.w3.org/2000/svg"
   xmlns:svg="http://www.w3.org/2000/svg"><defs
   id="defs53"><rect
     x="80.467316"
     y="157.37413"
     width="322.58136"
     height="101.11822"
     id="rect2940" /></defs><sodipodi:namedview
   id="namedview51"
   pagecolor="#ffffff"
   bordercolor="#666666"
   borderopacity="1.0"
   inkscape:pageshadow="2"
   inkscape:pageopacity="0.0"
   inkscape:pagecheckerboard="0"
   showgrid="false"
   inkscape:zoom="0.99298784"
   inkscape:cx="3.021185"
   inkscape:cy="268.38194"
   inkscape:window-width="1271"
   inkscape:window-height="1012"
   inkscape:window-x="2363"
   inkscape:window-y="428"
   inkscape:window-maximized="0"
   inkscape:current-layer="Layer_1" />
<path
   style="fill:#E2E5E7;"
   d="M128,0c-17.6,0-32,14.4-32,32v448c0,17.6,14.4,32,32,32h320c17.6,0,32-14.4,32-32V128L352,0H128z"
   id="path2" />
<path
   style="fill:#B0B7BD;"
   d="M384,128h96L352,0v96C352,113.6,366.4,128,384,128z"
   id="path4" />
<polygon
   style="fill:#CAD1D8;"
   points="480,224 384,128 480,128 "
   id="polygon6" />
<path
   style="fill:#A066AA;"
   d="M416,416c0,8.8-7.2,16-16,16H48c-8.8,0-16-7.2-16-16V256c0-8.8,7.2-16,16-16h352c8.8,0,16,7.2,16,16  V416z"
   id="path8" />

<path
   style="fill:#CAD1D8;"
   d="M400,432H96v16h304c8.8,0,16-7.2,16-16v-16C416,424.8,408.8,432,400,432z"
   id="path18" />
<g
   id="g20">
</g>
<g
   id="g22">
</g>
<g
   id="g24">
</g>
<g
   id="g26">
</g>
<g
   id="g28">
</g>
<g
   id="g30">
</g>
<g
   id="g32">
</g>
<g
   id="g34">
</g>
<g
   id="g36">
</g>
<g
   id="g38">
</g>
<g
   id="g40">
</g>
<g
   id="g42">
</g>
<g
   id="g44">
</g>
<g
   id="g46">
</g>
<g
   id="g48">
</g>
<g
   aria-label="PNG"
   transform="matrix(2.5171682,0,0,3.3321571,-101.94002,-262.01628)"
   id="text2938"
   style="font-size:40px;line-height:1.25;letter-spacing:0px;word-spacing:0px;white-space:pre;shape-inside:url(#rect2940);fill:#ffffff"><path
     d="m 111.9068,172.62821 c 0,-2.12 -0.72,-3.88 -2.2,-5.36 -1.48,-1.48 -3.24,-2.24 -5.36,-2.24 H 83.226797 v 28.84 h 5.84 v -8.6 H 104.3468 c 2.12,0 3.88,-0.72 5.36,-2.2 1.48,-1.48 2.2,-3.28 2.2,-5.4 z m -5.76,5.04 c 0,1.2 -0.6,1.8 -1.8,1.8 H 89.066797 v -8.6 H 104.3468 c 1.2,0 1.8,0.6 1.8,1.76 z"
     style="font-family:Galerian;-inkscape-font-specification:Galerian"
     id="path844" /><path
     d="m 143.98676,165.14821 h -5.84 v 19.4 l -10.32,-16.76 c -0.72,-1.2 -1.32,-1.92 -1.84,-2.2 -0.52,-0.28 -1.44,-0.44 -2.76,-0.44 h -4.52 c -1.32,0 -2.16,0.16 -2.6,0.52 -0.48,0.4 -0.72,1.24 -0.72,2.52 v 25.68 h 5.8 v -22.84 h 1.44 l 12.4,20.08 c 0.6,0.96 1.08,1.64 1.44,2 0.48,0.52 0.96,0.8 1.44,0.8 l 6.08,-0.04 z"
     style="font-family:Galerian;-inkscape-font-specification:Galerian"
     id="path846" /><path
     d="m 162.26677,176.74821 v 5.88 h 7.64 v 5.4 h -15.6 c -0.92,0 -1.36,-0.44 -1.36,-1.36 v -2.68 c 0,-1.24 0.2,-2.2 0.64,-2.88 0.16,-0.28 0.84,-1 2.08,-2.24 l 5.24,-5.24 c 1,-1 1.84,-1.68 2.56,-2.04 0.88,-0.44 1.92,-0.64 3.16,-0.64 h 3.16 v 2.36 h 5.84 v -8.16 h -10.56 c -1.72,0 -3.16,0.32 -4.32,0.96 -0.8,0.44 -1.96,1.4 -3.48,2.92 l -5.72,5.68 c -1.88,1.88 -3.04,3.24 -3.44,4 -0.64,1.12 -0.96,2.8 -0.96,5.08 v 2.88 c 0,2.04 0.68,3.72 2.08,5.12 1.4,1.4 3.12,2.08 5.08,2.08 h 21.4 l 0.04,-17.12 z"
     style="font-family:Galerian;-inkscape-font-specification:Galerian"
     id="path848" /></g></svg>
