<?xml version="1.0" encoding="UTF-8" standalone="no"?>
<!-- Created with Inkscape (http://www.inkscape.org/) -->

<svg
   width="50"
   height="50"
   viewBox="0 0 13.229166 13.229167"
   version="1.1"
   id="svg830"
   sodipodi:docname="settings.svg"
   inkscape:version="1.1.2 (b8e25be833, 2022-02-05)"
   xmlns:inkscape="http://www.inkscape.org/namespaces/inkscape"
   xmlns:sodipodi="http://sodipodi.sourceforge.net/DTD/sodipodi-0.dtd"
   xmlns="http://www.w3.org/2000/svg"
   xmlns:svg="http://www.w3.org/2000/svg">
  <sodipodi:namedview
     id="namedview832"
     pagecolor="#ffffff"
     bordercolor="#666666"
     borderopacity="1.0"
     inkscape:pageshadow="2"
     inkscape:pageopacity="0.0"
     inkscape:pagecheckerboard="0"
     inkscape:document-units="mm"
     showgrid="false"
     units="px"
     inkscape:zoom="5.1241863"
     inkscape:cx="64.985928"
     inkscape:cy="0.39030587"
     inkscape:window-width="1674"
     inkscape:window-height="1333"
     inkscape:window-x="2034"
     inkscape:window-y="220"
     inkscape:window-maximized="0"
     inkscape:current-layer="layer1" />
  <defs
     id="defs827" />
  <g
     inkscape:label="Layer 1"
     inkscape:groupmode="layer"
     id="layer1">
    <path
       d="m 12.733073,4.051433 c 0.33073,0.7854818 0.496094,1.6398669 0.496094,2.5631513 0,0.1378031 -0.04823,0.2549385 -0.144687,0.3513999 -0.09645,0.096461 -0.213597,0.1446938 -0.351399,0.1446938 h -1.364258 l -0.165364,0.8474936 1.281574,0.537435 0.268717,0.268718 c 0.05513,0.124023 0.05513,0.248047 0,0.37207 -0.31695,0.785482 -0.806152,1.5089514 -1.467608,2.1704114 l -0.33073,0.124015 -0.3514,-0.124015 -0.9715184,-0.971518 -0.72347,0.496094 0.537436,1.260904 c 0.05513,0.124015 0.05513,0.248047 0,0.37207 l -0.268717,0.268717 c -0.785483,0.33073 -1.6398676,0.496094 -2.5631521,0.496094 -0.1377969,0 -0.2549391,-0.04823 -0.3514,-0.144687 C 6.1667215,12.98801 6.118503,12.870883 6.118503,12.73308 V 11.368823 L 5.2710094,11.224135 4.754245,12.485039 4.4855276,12.753756 c -0.1240235,0.05512 -0.2480469,0.05512 -0.3720704,0 -0.7992609,-0.31695 -1.5227311,-0.799259 -2.1704104,-1.446938 -0.096461,-0.09647 -0.1446938,-0.213597 -0.1446938,-0.3514 0,-0.137797 0.048233,-0.254939 0.1446938,-0.3514 L 2.9145641,9.6325006 2.4184703,8.9090306 1.1368946,9.4464656 c -0.1240234,0.05512 -0.24804692,0.05512 -0.37207032,0 l -0.2687304,-0.26873 C 0.16536468,8.3922536 8.3333332e-8,7.5378686 8.3333332e-8,6.6145843 8.3333332e-8,6.4767811 0.04823308,6.3596458 0.14469388,6.2631846 0.24115478,6.1667236 0.35829108,6.1184908 0.49609358,6.1184908 H 1.8603516 L 2.0257165,5.2709969 0.74414078,4.7542325 0.47542328,4.4855151 c -0.05512,-0.1240235 -0.05512,-0.2480469 0,-0.3720704 C 0.79237348,3.3141838 1.2815757,2.5907136 1.9430343,1.9430343 2.0394953,1.8465733 2.1497399,1.7983405 2.2737634,1.7983405 c 0.1378031,0 0.2549385,0.048233 0.3513999,0.1446938 l 0.971517,0.971517 C 3.8309481,2.7216245 4.0721035,2.55626 4.3201504,2.4184575 L 3.7827155,1.1368818 c -0.05512,-0.1240234 -0.05512,-0.24804692 0,-0.37207032 0.05512,-0.1240235 0.1446937,-0.2135974 0.2687175,-0.2687176 C 4.8369148,0.16536468 5.6912998,8.333333e-8 6.6145843,8.333333e-8 c 0.1377969,0 0.2549391,0.04823299666667 0.3514,0.14469379666667 0.096469,0.096461 0.1446876,0.2135972 0.1446876,0.3513997 V 1.8603516 l 0.8474997,0.1653649 0.537435,-1.28157572 c 0.04134,-0.1240234 0.124015,-0.2135973 0.248047,-0.2687175 0.124015,-0.05512 0.254939,-0.05512 0.39274,0 0.509874,0.2067058 0.9990804,0.4892022 1.4676124,0.84749372 l 0.682129,0.6201173 c 0.09645,0.096461 0.144688,0.2135972 0.144688,0.3513997 l -0.144688,0.3307293 -0.950847,0.971517 0.475424,0.7234701 1.281574,-0.5374349 c 0.124031,-0.05512 0.248047,-0.05512 0.37207,0 L 12.733073,4.051433 M 6.6145843,3.4106451 c -0.8819439,0 -1.639867,0.3100586 -2.2737633,0.9301759 -0.6201173,0.6338963 -0.9301759,1.3918202 -0.9301759,2.2737633 0,0.8819432 0.3100586,1.6398673 0.9301759,2.2737633 0.6338963,0.620117 1.3918194,0.930176 2.2737633,0.930176 0.8819439,0 1.6398673,-0.310059 2.2737633,-0.930176 0.620117,-0.633896 0.930176,-1.3918201 0.930176,-2.2737633 0,-0.8819431 -0.310059,-1.639867 -0.930176,-2.2737633 C 8.2544516,3.7207037 7.4965282,3.4106451 6.6145843,3.4106451 m 0,1.6123049 c 0.4409735,0 0.8199314,0.151586 1.1368813,0.4547527 0.31695,0.3169502 0.475424,0.6959079 0.475424,1.1368816 0,0.4409736 -0.158474,0.8199315 -0.475424,1.1368813 -0.3169499,0.316951 -0.6959078,0.475424 -1.1368813,0.475424 -0.4409735,0 -0.8199314,-0.158473 -1.1368816,-0.475424 C 5.1745357,7.4345158 5.02295,7.0555579 5.02295,6.6145843 5.02295,6.1736106 5.174536,5.7946529 5.4777027,5.4777027 5.7946529,5.1745357 6.1736108,5.02295 6.6145843,5.02295"
       style="fill:#4d4d4d;stroke:none;stroke-width:0.413411"
       id="path3217" />
  </g>
</svg>
